<svg width="95" height="80" viewBox="0 0 95 80" fill="none" xmlns="http://www.w3.org/2000/svg">
<path d="M82.2557 42.3268H60.7446C60.3898 42.3268 60.0495 42.1859 59.7986 41.935C59.5477 41.6841 59.4067 41.3438 59.4067 40.989C59.4067 40.6341 59.5477 40.2939 59.7986 40.043C60.0495 39.7921 60.3898 39.6511 60.7446 39.6511H82.2557C82.6105 39.6511 82.9508 39.7921 83.2017 40.043C83.4526 40.2939 83.5935 40.6341 83.5935 40.989C83.5935 41.3438 83.4526 41.6841 83.2017 41.935C82.9508 42.1859 82.6105 42.3268 82.2557 42.3268Z" fill="#F59FAF" stroke="#F59FAF"/>
<path d="M85.5861 54.572H61.3579C61.003 54.572 60.6628 54.4311 60.4119 54.1802C60.161 53.9293 60.02 53.589 60.02 53.2342C60.02 52.8794 60.161 52.5391 60.4119 52.2882C60.6628 52.0373 61.003 51.8964 61.3579 51.8964H85.5861C85.9409 51.8964 86.2812 52.0373 86.5321 52.2882C86.783 52.5391 86.9239 52.8794 86.9239 53.2342C86.9239 53.589 86.783 53.9293 86.5321 54.1802C86.2812 54.4311 85.9409 54.572 85.5861 54.572V54.572Z" fill="#F59FAF" stroke="#F59FAF"/>
<path d="M81.8103 66.8039H57.5834C57.2286 66.8039 56.8883 66.6629 56.6375 66.412C56.3866 66.1611 56.2456 65.8208 56.2456 65.466C56.2456 65.1112 56.3866 64.7709 56.6375 64.52C56.8883 64.2691 57.2286 64.1282 57.5834 64.1282H81.8103C82.1652 64.1282 82.5054 64.2691 82.7563 64.52C83.0072 64.7709 83.1482 65.1112 83.1482 65.466C83.1482 65.8208 83.0072 66.1611 82.7563 66.412C82.5054 66.6629 82.1652 66.8039 81.8103 66.8039Z" fill="#F59FAF" stroke="#F59FAF"/>
<path d="M74.4976 79.0464H37.2656C33.5968 79.0493 29.9756 78.2167 26.6766 76.6116L24.2792 75.4463C23.2506 74.9484 22.3826 74.1716 21.7741 73.2044C21.1655 72.2373 20.8408 71.1186 20.8369 69.9759V35.9814C20.8397 33.5305 21.8146 31.1808 23.5477 29.4477C25.2807 27.7147 27.6305 26.7398 30.0814 26.737H31.866C34.4162 26.1091 36.6722 24.6218 38.2542 22.5255C40.6303 19.3902 42.5704 15.9474 44.0216 12.291C44.9695 9.87353 45.7381 7.38959 46.3214 4.85931C46.4934 4.13449 46.8234 3.45663 47.288 2.87423C47.7525 2.29183 48.3399 1.81928 49.0083 1.49038C49.6768 1.16148 50.4096 0.984356 51.1544 0.971679C51.8993 0.959003 52.6377 1.11109 53.3169 1.41705C55.9452 2.57033 58.0693 4.63279 59.2995 7.2259C60.5297 9.81901 60.7835 12.7688 60.0142 15.5339C58.7932 19.7857 56.8824 23.8082 54.3578 27.4407L81.9881 27.4046C83.9039 27.3763 85.7601 28.0703 87.1875 29.3485C88.6148 30.6266 89.5088 32.3952 89.6914 34.3025C89.7659 35.2864 89.6435 36.2753 89.3313 37.2114C89.0191 38.1474 88.5235 39.0119 87.8733 39.7541C89.5649 40.0041 91.1219 40.8197 92.2905 42.068C93.4591 43.3163 94.1703 44.9236 94.3083 46.628C94.3724 47.6464 94.2273 48.6672 93.8822 49.6275C93.537 50.5879 92.999 51.4674 92.3012 52.212C91.6035 52.9567 90.7607 53.5507 89.8248 53.9574C88.8889 54.3642 87.8797 54.5752 86.8592 54.5774H86.7562C87.6644 55.6659 88.2432 56.9907 88.425 58.3966C88.6067 59.8025 88.3838 61.231 87.7823 62.5146C87.1808 63.7983 86.2257 64.8837 85.029 65.6437C83.8324 66.4037 82.4438 66.8066 81.0262 66.8052H80.2142C81.3379 68.1429 81.9538 69.8342 81.9534 71.5813C81.9542 72.5608 81.7622 73.5308 81.3882 74.436C81.0142 75.3413 80.4655 76.164 79.7736 76.8572C79.0816 77.5504 78.2599 78.1005 77.3553 78.4761C76.4508 78.8518 75.4811 79.0456 74.5016 79.0464H74.4976ZM30.0814 29.4127C28.3398 29.4144 26.67 30.1071 25.4385 31.3386C24.207 32.5701 23.5144 34.2398 23.5126 35.9814V69.9759C23.5149 70.6158 23.6971 71.2422 24.0385 71.7835C24.3799 72.3247 24.8666 72.7591 25.4431 73.0369L27.8432 74.2035C30.7786 75.6321 34.0009 76.3732 37.2656 76.3708H74.4976C75.766 76.3686 76.9816 75.8629 77.8772 74.9648C78.7728 74.0667 79.2751 72.8497 79.2737 71.5813C79.2719 70.3152 78.7681 69.1014 77.8728 68.2061C76.9775 67.3108 75.7637 66.807 74.4976 66.8052C74.1428 66.8052 73.8025 66.6643 73.5516 66.4134C73.3007 66.1625 73.1598 65.8222 73.1598 65.4674C73.1598 65.1126 73.3007 64.7723 73.5516 64.5214C73.8025 64.2705 74.1428 64.1296 74.4976 64.1296H81.0262C81.6554 64.1303 82.2785 64.0069 82.8599 63.7664C83.4413 63.526 83.9696 63.1732 84.4145 62.7283C84.8593 62.2834 85.2121 61.7552 85.4526 61.1738C85.693 60.5924 85.8164 59.9693 85.8157 59.3401C85.8107 58.0738 85.3037 56.8612 84.4058 55.9684C83.5079 55.0755 82.2925 54.5753 81.0262 54.5774C80.6714 54.5774 80.3311 54.4364 80.0802 54.1855C79.8294 53.9347 79.6884 53.5944 79.6884 53.2395C79.6884 52.8847 79.8294 52.5444 80.0802 52.2936C80.3311 52.0427 80.6714 51.9017 81.0262 51.9017H86.8592C87.514 51.8997 88.1616 51.7638 88.762 51.5024C89.3624 51.241 89.9029 50.8595 90.3505 50.3815C90.7981 49.9035 91.1432 49.339 91.3646 48.7227C91.586 48.1065 91.679 47.4514 91.638 46.7979C91.5008 45.5496 90.9013 44.3979 89.9574 43.5696C89.0135 42.7414 87.7936 42.2966 86.5381 42.3228H82.257C81.9022 42.3228 81.5619 42.1818 81.3111 41.9309C81.0602 41.6801 80.9192 41.3398 80.9192 40.985C80.9192 40.6301 81.0602 40.2899 81.3111 40.039C81.5619 39.7881 81.9022 39.6471 82.257 39.6471C82.8804 39.6525 83.4984 39.5322 84.0742 39.2934C84.65 39.0545 85.1718 38.7021 85.6083 38.2571C86.1042 37.7717 86.4878 37.1836 86.7321 36.5342C86.9764 35.8847 87.0755 35.1896 87.0224 34.4978C86.8887 33.2653 86.2975 32.1279 85.3655 31.3104C84.4336 30.493 83.2288 30.0549 81.9895 30.0829L51.5135 30.1217C51.2478 30.1217 50.9882 30.0425 50.7676 29.8943C50.5471 29.7462 50.3757 29.5357 50.2752 29.2897C50.1747 29.0437 50.1498 28.7734 50.2036 28.5132C50.2573 28.253 50.3873 28.0147 50.577 27.8287C53.7857 24.0462 56.1265 19.6066 57.4348 14.8222C58.0303 12.6728 57.8304 10.3807 56.872 8.36673C55.9135 6.35278 54.2608 4.75212 52.2172 3.85861C51.8969 3.71377 51.5485 3.64161 51.197 3.64729C50.8456 3.65297 50.4997 3.73635 50.1842 3.89146C49.8688 4.04657 49.5915 4.26957 49.3724 4.54445C49.1533 4.81934 48.9977 5.1393 48.9168 5.48141C48.3071 8.1361 47.5022 10.7422 46.5087 13.2783C44.9703 17.1543 42.9141 20.8041 40.3961 24.1282C38.4218 26.7504 35.5942 28.6014 32.4012 29.3618C32.2765 29.3914 32.1493 29.4084 32.0212 29.4127H30.0814Z" fill="#F59FAF" stroke="#F59FAF"/>
<path d="M18.9078 79.3555H5.28463C4.06249 79.3541 2.89083 78.8679 2.02677 78.0036C1.16272 77.1393 0.676843 75.9675 0.675781 74.7453V29.1491C0.676844 27.9271 1.16276 26.7555 2.02686 25.8914C2.89095 25.0273 4.06262 24.5413 5.28463 24.5403H18.9078C20.1299 24.5413 21.3015 25.0273 22.1656 25.8914C23.0297 26.7555 23.5156 27.9271 23.5167 29.1491V74.7453C23.5156 75.9675 23.0298 77.1393 22.1657 78.0036C21.3016 78.8679 20.13 79.3541 18.9078 79.3555V79.3555ZM5.28463 27.216C4.77203 27.2163 4.28053 27.4201 3.91806 27.7826C3.5556 28.145 3.35181 28.6365 3.35146 29.1491V74.7453C3.35181 75.2581 3.55556 75.7497 3.91798 76.1124C4.28041 76.475 4.77191 76.6791 5.28463 76.6798H18.9078C19.4206 76.6791 19.9121 76.475 20.2745 76.1124C20.6369 75.7497 20.8407 75.2581 20.841 74.7453V29.1491C20.8407 28.6365 20.6369 28.145 20.2744 27.7826C19.9119 27.4201 19.4204 27.2163 18.9078 27.216H5.28463Z" fill="#F59FAF" stroke="#F59FAF"/>
<path d="M12.097 73.4062C11.1791 73.4075 10.2814 73.1365 9.51754 72.6275C8.75368 72.1185 8.15797 71.3944 7.80578 70.5467C7.45359 69.6991 7.36076 68.766 7.53902 67.8655C7.71729 66.9651 8.15864 66.1378 8.80723 65.4882C9.45583 64.8387 10.2825 64.3962 11.1827 64.2166C12.0829 64.037 13.0161 64.1285 13.8643 64.4795C14.7124 64.8304 15.4374 65.4251 15.9475 66.1882C16.4577 66.9514 16.7299 67.8487 16.7299 68.7666C16.7285 69.9955 16.2402 71.1738 15.3718 72.0434C14.5035 72.913 13.3259 73.403 12.097 73.4062V73.4062ZM12.097 66.804C11.7082 66.8026 11.3278 66.9167 11.0039 67.1318C10.6801 67.3468 10.4273 67.6532 10.2777 68.012C10.128 68.3708 10.0883 68.766 10.1634 69.1474C10.2385 69.5289 10.4252 69.8794 10.6997 70.1547C10.9742 70.43 11.3243 70.6176 11.7055 70.6938C12.0868 70.77 12.482 70.7313 12.8413 70.5826C13.2005 70.434 13.5075 70.182 13.7235 69.8587C13.9394 69.5354 14.0545 69.1553 14.0543 68.7666C14.0536 68.2472 13.8473 67.7492 13.4805 67.3815C13.1138 67.0137 12.6164 66.8061 12.097 66.804V66.804Z" fill="#F59FAF" stroke="#F59FAF"/>
</svg>
