<svg width="199" height="199" viewBox="0 0 199 199" fill="none" xmlns="http://www.w3.org/2000/svg">
<path d="M149.25 149.25C176.726 121.774 176.726 77.2262 149.25 49.75C121.774 22.2738 77.2262 22.2738 49.75 49.75C22.2738 77.2262 22.2738 121.774 49.75 149.25C77.2262 176.726 121.774 176.726 149.25 149.25Z" fill="#FFD05D"/>
<path d="M136.306 39.4521C144.877 52.8692 148.645 68.7963 146.994 84.6314C145.342 100.466 138.369 115.274 127.215 126.633C116.06 137.993 101.382 145.234 85.5798 147.174C69.7774 149.114 53.7843 145.637 40.2134 137.312C45.9117 146.222 53.5455 153.733 62.5471 159.285C71.5486 164.838 81.6862 168.29 92.206 169.385C102.726 170.479 113.357 169.188 123.309 165.606C133.26 162.025 142.277 156.247 149.687 148.7C157.097 141.154 162.711 132.033 166.11 122.018C169.509 112.003 170.607 101.35 169.321 90.852C168.035 80.3539 164.399 70.2808 158.683 61.3819C152.968 52.483 145.319 44.9872 136.306 39.4521Z" fill="#FDC453"/>
<path d="M38.703 106.92C38.7014 93.2772 42.9722 79.976 50.9159 68.8839C58.8596 57.7919 70.0773 49.4658 82.9945 45.0745C95.9116 40.6832 109.88 40.4472 122.938 44.3995C135.996 48.3518 147.489 56.294 155.803 67.1113C151.347 59.3502 145.345 52.5874 138.167 47.2422C130.99 41.8971 122.791 38.0838 114.079 36.0387C105.367 33.9937 96.3274 33.7605 87.5214 35.3538C78.7154 36.9471 70.3308 40.3327 62.8875 45.3008C55.4442 50.2688 49.1011 56.7133 44.2517 64.2343C39.4022 71.7554 36.1499 80.1927 34.6964 89.0229C33.243 97.853 33.6194 106.888 35.8023 115.566C37.9852 124.245 41.928 132.382 47.3862 139.474C41.6809 129.575 38.6859 118.346 38.703 106.92Z" fill="#FFD77F"/>
<path d="M70.6624 110.139C70.2796 109.77 69.7817 109.542 69.2515 109.495C68.7214 109.448 68.191 109.583 67.7489 109.88C67.3068 110.176 66.9796 110.615 66.8218 111.123C66.6641 111.632 66.6854 112.179 66.8821 112.673C69.4784 119.159 73.9429 124.728 79.7092 128.673C85.4756 132.617 92.2837 134.76 99.2698 134.829C106.256 134.898 113.105 132.89 118.948 129.06C124.791 125.23 129.365 119.751 132.089 113.317C132.291 112.826 132.318 112.28 132.165 111.77C132.013 111.261 131.69 110.82 131.251 110.52C130.812 110.221 130.284 110.081 129.754 110.124C129.224 110.167 128.726 110.391 128.341 110.758C118.057 120.762 96.2003 134.951 70.6624 110.139Z" fill="#5E4939"/>
<path d="M81.335 89.3972C80.3778 86.9928 78.7265 84.9278 76.5915 83.4654C74.4564 82.0029 71.9344 81.2092 69.3466 81.1852C66.7588 81.1613 64.2225 81.9084 62.0608 83.3311C59.8992 84.7539 58.21 86.788 57.2085 89.1743C57.0245 89.6185 56.9987 90.1125 57.1355 90.5735C57.2723 91.0345 57.5635 91.4344 57.9601 91.7062C58.3568 91.9781 58.8348 92.1053 59.3141 92.0666C59.7934 92.0279 60.2448 91.8256 60.5927 91.4937C64.4968 87.7051 70.6708 84.6676 77.9261 91.7C78.2707 92.0423 78.7234 92.2543 79.2069 92.2998C79.6904 92.3454 80.1747 92.2217 80.5771 91.9498C80.9796 91.678 81.2751 91.2748 81.4134 90.8093C81.5516 90.3437 81.5239 89.8446 81.335 89.3972Z" fill="#303030"/>
<path d="M141.779 89.3971C140.82 86.9996 139.169 84.9411 137.038 83.4829C134.907 82.0248 132.391 81.2326 129.808 81.2069C127.226 81.1813 124.694 81.9233 122.535 83.3389C120.375 84.7545 118.684 86.7797 117.677 89.1577C117.493 89.6019 117.467 90.0959 117.604 90.5569C117.741 91.0179 118.032 91.4178 118.429 91.6896C118.826 91.9615 119.304 92.0887 119.783 92.05C120.262 92.0113 120.714 91.809 121.061 91.4771C124.966 87.6885 131.14 84.651 138.395 91.6834C138.742 92.0055 139.188 92.2007 139.66 92.2371C140.132 92.2736 140.602 92.1491 140.995 91.884C141.387 91.619 141.678 91.2289 141.821 90.7773C141.963 90.3257 141.948 89.8392 141.779 89.3971Z" fill="#303030"/>
<path d="M47.7741 122.116C54.5573 122.116 60.0561 116.617 60.0561 109.834C60.0561 103.051 54.5573 97.552 47.7741 97.552C40.991 97.552 35.4922 103.051 35.4922 109.834C35.4922 116.617 40.991 122.116 47.7741 122.116Z" fill="#F5A6AC"/>
<path d="M151.222 122.116C158.005 122.116 163.504 116.617 163.504 109.834C163.504 103.051 158.005 97.552 151.222 97.552C144.439 97.552 138.94 103.051 138.94 109.834C138.94 116.617 144.439 122.116 151.222 122.116Z" fill="#F5A6AC"/>
</svg>
