<svg width="27" height="27" viewBox="0 0 27 27" fill="none" xmlns="http://www.w3.org/2000/svg">
<path d="M5.9545 5.9545C6.39384 5.51517 7.10616 5.51517 7.54549 5.9545L13.5 11.909L19.4545 5.9545C19.8938 5.51517 20.6062 5.51517 21.0455 5.9545C21.4848 6.39384 21.4848 7.10616 21.0455 7.5455L15.091 13.5L21.0455 19.4545C21.4848 19.8938 21.4848 20.6062 21.0455 21.0455C20.6062 21.4848 19.8938 21.4848 19.4545 21.0455L13.5 15.091L7.54549 21.0455C7.10616 21.4848 6.39384 21.4848 5.9545 21.0455C5.51517 20.6062 5.51517 19.8938 5.9545 19.4545L11.909 13.5L5.9545 7.5455C5.51517 7.10616 5.51517 6.39384 5.9545 5.9545Z" fill="#6B70F2"/>
</svg>
