<svg width="85" height="78" viewBox="0 0 85 78" fill="none" xmlns="http://www.w3.org/2000/svg">
<circle cx="39" cy="39" r="39" fill="#F8DC71"/>
<path fill-rule="evenodd" clip-rule="evenodd" d="M52.4069 22.71C48.9536 18.0433 43.6803 15.71 36.5869 15.71C29.4469 15.71 24.1502 18.02 20.6969 22.64C17.2902 27.26 15.5869 33.6066 15.5869 41.68C15.5869 49.7533 17.2902 56.1233 20.6969 60.79C24.1502 65.41 29.4469 67.72 36.5869 67.72C43.6803 67.72 48.9536 65.41 52.4069 60.79C55.8602 56.1233 57.5869 49.7533 57.5869 41.68C57.5869 33.6533 55.8602 27.33 52.4069 22.71ZM50.8021 59.5964C53.9163 55.3858 55.5869 49.486 55.5869 41.68C55.5869 33.9197 53.9159 28.0693 50.805 23.9074L50.7992 23.8997C47.8079 19.8573 43.2038 17.71 36.5869 17.71C29.9134 17.71 25.2886 19.841 22.3027 23.8323C19.2366 27.9934 17.5869 33.8684 17.5869 41.68C17.5869 49.4877 19.2351 55.3901 22.3056 59.6016C25.2917 63.5904 29.9156 65.72 36.5869 65.72C43.2092 65.72 47.8136 63.5919 50.8021 59.5964ZM67.8146 31.39V68H84.1246V16.83H60.3946V31.39H67.8146ZM62.3946 29.39H69.8146V66H82.1246V18.83H62.3946V29.39ZM31.9669 50.22C31.2202 48.3066 30.8469 45.46 30.8469 41.68C30.8469 37.9466 31.2202 35.1466 31.9669 33.28C32.7136 31.3666 34.2536 30.41 36.5869 30.41C38.8736 30.41 40.3902 31.3666 41.1369 33.28C41.8836 35.1466 42.2569 37.9466 42.2569 41.68C42.2569 45.46 41.8836 48.3066 41.1369 50.22C40.3902 52.0866 38.8736 53.02 36.5869 53.02C34.2536 53.02 32.7136 52.0866 31.9669 50.22ZM42.997 32.5449C43.8853 34.7709 44.2569 37.8767 44.2569 41.68C44.2569 45.5355 43.8839 48.6822 43.0001 50.947L42.997 50.9549L42.9939 50.9627C42.4826 52.241 41.6581 53.303 40.4876 54.0233C39.3362 54.7318 37.9968 55.02 36.5869 55.02C35.1607 55.02 33.8076 54.7348 32.6453 54.0304C31.4611 53.3126 30.6248 52.2497 30.11 50.9627L30.1068 50.9549L30.1038 50.947C29.2199 48.6822 28.8469 45.5355 28.8469 41.68C28.8469 37.8765 29.2185 34.7707 30.107 32.5446C30.6159 31.2449 31.4439 30.1633 32.6265 29.4286C33.7924 28.7043 35.1527 28.41 36.5869 28.41C38.0051 28.41 39.3516 28.7074 40.5064 29.4359C41.6752 30.1731 42.4915 31.2537 42.997 32.5449Z" fill="#8569D7"/>
</svg>
