<svg width="100" height="78" viewBox="0 0 100 78" fill="none" xmlns="http://www.w3.org/2000/svg">
<circle cx="39" cy="39" r="39" fill="#F8DC71"/>
<path fill-rule="evenodd" clip-rule="evenodd" d="M52.3532 22.71C48.8999 18.0433 43.6265 15.71 36.5332 15.71C29.3932 15.71 24.0965 18.02 20.6432 22.64C17.2365 27.26 15.5332 33.6066 15.5332 41.68C15.5332 49.7533 17.2365 56.1233 20.6432 60.79C24.0965 65.41 29.3932 67.72 36.5332 67.72C43.6265 67.72 48.8999 65.41 52.3532 60.79C55.8065 56.1233 57.5332 49.7533 57.5332 41.68C57.5332 33.6533 55.8065 27.33 52.3532 22.71ZM50.7484 59.5964C53.8626 55.3858 55.5332 49.486 55.5332 41.68C55.5332 33.9197 53.8622 28.0693 50.7513 23.9074L50.7455 23.8997C47.7542 19.8573 43.1501 17.71 36.5332 17.71C29.8597 17.71 25.2349 19.841 22.2489 23.8323C19.1829 27.9934 17.5332 33.8684 17.5332 41.68C17.5332 49.4877 19.1813 55.3901 22.2519 59.6016C25.238 63.5904 29.8619 65.72 36.5332 65.72C43.1555 65.72 47.7599 63.5919 50.7484 59.5964ZM31.9132 50.22C31.1665 48.3066 30.7932 45.46 30.7932 41.68C30.7932 37.9466 31.1665 35.1466 31.9132 33.28C32.6599 31.3666 34.1999 30.41 36.5332 30.41C38.8199 30.41 40.3365 31.3666 41.0832 33.28C41.8299 35.1466 42.2032 37.9466 42.2032 41.68C42.2032 45.46 41.8299 48.3066 41.0832 50.22C40.3365 52.0866 38.8199 53.02 36.5332 53.02C34.1999 53.02 32.6599 52.0866 31.9132 50.22ZM42.9432 32.5449C43.8316 34.7709 44.2032 37.8767 44.2032 41.68C44.2032 45.5355 43.8302 48.6822 42.9464 50.947L42.9433 50.9549L42.9402 50.9627C42.4289 52.241 41.6044 53.303 40.4339 54.0233C39.2825 54.7318 37.9431 55.02 36.5332 55.02C35.107 55.02 33.7539 54.7348 32.5916 54.0304C31.4074 53.3126 30.571 52.2497 30.0562 50.9627L30.0531 50.9549L30.05 50.947C29.1662 48.6822 28.7932 45.5355 28.7932 41.68C28.7932 37.8765 29.1648 34.7707 30.0533 32.5446C30.5622 31.2449 31.3901 30.1633 32.5728 29.4286C33.7387 28.7043 35.099 28.41 36.5332 28.41C37.9513 28.41 39.2979 28.7074 40.4527 29.4359C41.6215 30.1731 42.4377 31.2537 42.9432 32.5449ZM96.1809 22.71C94.8742 20.5633 92.9142 18.86 90.3009 17.6C87.6875 16.34 84.5375 15.71 80.8509 15.71C75.1575 15.71 70.7475 17.18 67.6209 20.12C64.9217 22.6964 63.3515 26.2764 62.9102 30.86C62.848 31.5067 62.8082 32.1733 62.7909 32.86H77.9109C77.9109 29.9666 78.7742 28.52 80.5009 28.52C81.2475 28.52 81.8542 28.8 82.3209 29.36C82.8342 29.92 83.0909 30.7833 83.0909 31.95C83.0909 34.6566 81.5042 35.9166 78.3309 35.73H75.8109V48.26H78.4009C80.4542 48.26 81.9009 48.61 82.7409 49.31C83.6275 49.9633 84.0709 50.9433 84.0709 52.25C84.0709 53.2766 83.7909 54.1166 83.2309 54.77C82.6709 55.3766 81.9709 55.68 81.1309 55.68C79.6842 55.68 78.6575 55.26 78.0509 54.42C77.6509 53.7866 77.4175 52.9509 77.3509 51.9128C77.3242 51.4976 77.3242 51.05 77.3509 50.57H62.2309C62.2413 51.2569 62.2726 51.9236 62.3248 52.57C62.7406 57.7193 64.4826 61.5793 67.5509 64.15C71.0042 67.0433 75.7642 68.49 81.8309 68.49C85.3775 68.49 88.4342 67.86 91.0009 66.6C93.6142 65.34 95.6209 63.5666 97.0209 61.28C98.4209 58.9933 99.1209 56.3566 99.1209 53.37C99.1209 48.4649 97.0425 44.8934 92.8859 42.6556C92.2495 42.313 91.5645 42.0016 90.8307 41.7215C90.7942 41.7076 90.7576 41.6937 90.7209 41.68V41.4C90.7612 41.3862 90.8015 41.3721 90.8417 41.3579C91.5298 41.113 92.1936 40.7921 92.833 40.3951C93.9269 39.716 94.9495 38.8143 95.9009 37.69C97.4409 35.8233 98.2109 33.2566 98.2109 29.99C98.2109 27.2833 97.5342 24.8566 96.1809 22.71ZM94.3657 36.408C95.5164 35.0078 96.2109 32.9483 96.2109 29.99C96.2109 27.6345 95.6275 25.5824 94.489 23.7766L94.4806 23.7633L94.4725 23.7499C93.3959 21.9813 91.753 20.5204 89.4323 19.4015C87.153 18.3025 84.3157 17.71 80.8509 17.71C75.4998 17.71 71.644 19.0854 68.9963 21.5719C66.7636 23.7059 65.3498 26.736 64.92 30.86H76.0587C76.1963 30.0257 76.4415 29.2495 76.8409 28.58C77.6444 27.2337 78.9549 26.52 80.5009 26.52C81.8091 26.52 82.9729 27.0388 83.8275 28.0441C84.7949 29.1236 85.0909 30.5574 85.0909 31.95C85.0909 33.6935 84.5648 35.3634 83.1446 36.4912C81.8134 37.5483 80.0644 37.8268 78.2745 37.73H77.8109V46.26H78.4009C80.5393 46.26 82.5731 46.5973 83.974 47.7347C85.4381 48.8375 86.0709 50.4608 86.0709 52.25C86.0709 53.6574 85.6777 54.9885 84.7494 56.0715L84.7254 56.0995L84.7005 56.1265C83.7544 57.1514 82.518 57.68 81.1309 57.68C79.3151 57.68 77.5477 57.1392 76.4295 55.5909L76.3931 55.5405L76.3599 55.4879C75.8213 54.6352 75.5264 53.6407 75.4023 52.57H64.3314C64.7386 57.2626 66.3218 60.5111 68.8353 62.6169C71.8206 65.1181 76.0705 66.49 81.8309 66.49C85.1438 66.49 87.8851 65.9015 90.1195 64.8046L90.1259 64.8015L90.1323 64.7984C92.4292 63.691 94.1322 62.1678 95.3152 60.2357C96.5013 58.2982 97.1209 56.0313 97.1209 53.37C97.1209 50.8619 96.5093 48.893 95.3967 47.3445C94.2786 45.7885 92.5398 44.4981 90.0186 43.5526L88.7209 43.066V39.9695L90.0746 39.5073C91.5853 38.9914 93.0196 37.996 94.3657 36.408Z" fill="#8569D7"/>
</svg>
