<svg width="98" height="78" viewBox="0 0 98 78" fill="none" xmlns="http://www.w3.org/2000/svg">
<circle cx="39" cy="39" r="39" fill="#F8DC71"/>
<path fill-rule="evenodd" clip-rule="evenodd" d="M52.0622 22.71C48.6089 18.0433 43.3355 15.71 36.2422 15.71C29.1022 15.71 23.8055 18.02 20.3522 22.64C16.9455 27.26 15.2422 33.6066 15.2422 41.68C15.2422 49.7533 16.9455 56.1233 20.3522 60.79C23.8055 65.41 29.1022 67.72 36.2422 67.72C43.3355 67.72 48.6089 65.41 52.0622 60.79C55.5155 56.1233 57.2422 49.7533 57.2422 41.68C57.2422 33.6533 55.5155 27.33 52.0622 22.71ZM50.4574 59.5964C53.5715 55.3858 55.2422 49.486 55.2422 41.68C55.2422 33.9197 53.5712 28.0693 50.4602 23.9074L50.4545 23.8997C47.4632 19.8573 42.8591 17.71 36.2422 17.71C29.5686 17.71 24.9439 19.841 21.9579 23.8323C18.8919 27.9934 17.2422 33.8684 17.2422 41.68C17.2422 49.4877 18.8903 55.3901 21.9609 59.6016C24.947 63.5904 29.5709 65.72 36.2422 65.72C42.8645 65.72 47.4689 63.5919 50.4574 59.5964ZM31.6222 50.22C30.8755 48.3066 30.5022 45.46 30.5022 41.68C30.5022 37.9466 30.8755 35.1466 31.6222 33.28C32.3689 31.3666 33.9089 30.41 36.2422 30.41C38.5289 30.41 40.0455 31.3666 40.7922 33.28C41.5389 35.1466 41.9122 37.9466 41.9122 41.68C41.9122 45.46 41.5389 48.3066 40.7922 50.22C40.0455 52.0866 38.5289 53.02 36.2422 53.02C33.9089 53.02 32.3689 52.0866 31.6222 50.22ZM42.6522 32.5449C43.5406 34.7709 43.9122 37.8767 43.9122 41.68C43.9122 45.5355 43.5392 48.6822 42.6553 50.947L42.6523 50.9549L42.6491 50.9627C42.1378 52.241 41.3134 53.303 40.1429 54.0233C38.9915 54.7318 37.6521 55.02 36.2422 55.02C34.816 55.02 33.4628 54.7348 32.3006 54.0304C31.1164 53.3126 30.28 52.2497 29.7652 50.9627L29.7621 50.9549L29.759 50.947C28.8752 48.6822 28.5022 45.5355 28.5022 41.68C28.5022 37.8765 28.8738 34.7707 29.7623 32.5446C30.2712 31.2449 31.0991 30.1633 32.2818 29.4286C33.4477 28.7043 34.808 28.41 36.2422 28.41C37.6603 28.41 39.0069 28.7074 40.1617 29.4359C41.3304 30.1731 42.1467 31.2537 42.6522 32.5449ZM76.1498 42.94C72.5098 46.72 67.5632 50.9433 61.3098 55.61V67.3H97.4998V54.77H81.4698C82.4801 54.1347 83.4519 53.468 84.3854 52.77C87.6349 50.3401 90.4197 47.5301 92.7398 44.34C95.7732 40.1866 97.2898 35.7533 97.2898 31.04C97.2898 26.56 95.8898 22.8966 93.0898 20.05C90.3365 17.1566 85.9732 15.71 79.9998 15.71C76.6398 15.71 73.5598 16.3633 70.7598 17.67C67.9598 18.9766 65.6732 21.03 63.8998 23.83C62.4461 26.1874 61.5547 29.0908 61.2257 32.54C61.1639 33.1874 61.122 33.8541 61.0998 34.54H76.1498C76.097 33.8002 76.0907 33.1335 76.1309 32.54C76.1973 31.561 76.3903 30.781 76.7098 30.2C77.2698 29.22 78.0165 28.73 78.9498 28.73C79.7432 28.73 80.3732 29.0333 80.8398 29.64C81.3532 30.2466 81.6098 31.11 81.6098 32.23C81.6098 35.5433 79.7898 39.1133 76.1498 42.94ZM82.3965 28.3838C83.2967 29.4693 83.6098 30.8435 83.6098 32.23C83.6098 36.2882 81.3916 40.3312 77.599 44.3184L77.5905 44.3273C74.0087 48.0468 69.2387 52.1415 63.3098 56.61V65.3H95.4998V56.77H74.5326L80.4051 53.0769C84.728 50.3584 88.2933 47.0537 91.1224 43.1636L91.1247 43.1604C93.932 39.3166 95.2898 35.2902 95.2898 31.04C95.2898 27.0149 94.0499 23.8781 91.664 21.4524L91.6524 21.4407L91.641 21.4287C89.4181 19.0927 85.6961 17.71 79.9998 17.71C76.9062 17.71 74.1183 18.3098 71.6056 19.4823C69.1807 20.6139 67.1792 22.3937 65.5959 24.8899C64.366 26.8884 63.5553 29.4165 63.2354 32.54H74.1269C74.1976 31.3017 74.4435 30.1705 74.9574 29.2361L74.9653 29.2218L74.9734 29.2077C75.8015 27.7585 77.1375 26.73 78.9498 26.73C80.3224 26.73 81.537 27.2886 82.3965 28.3838Z" fill="#8569D7"/>
</svg>
