<svg width="83" height="79" viewBox="0 0 83 79" fill="none" xmlns="http://www.w3.org/2000/svg">
<path d="M66.8376 22.2199L53.1923 20.2371L47.0899 7.87247C44.7329 3.09634 37.9173 3.09779 35.5611 7.87231L29.4587 20.237L15.8135 22.2199C10.5424 22.9857 8.43837 29.4678 12.2509 33.1845L22.1248 42.8091L19.7939 56.3988C18.8937 61.6486 24.4078 65.6526 29.121 63.1755L41.3257 56.7588L53.5305 63.1755C58.2371 65.6497 63.7577 61.6478 62.8576 56.3988L60.5268 42.8089L70.4008 33.1844C74.214 29.4664 72.1064 22.9856 66.8376 22.2199ZM66.5541 29.2389L55.6431 39.8744C54.9939 40.5073 54.6976 41.4192 54.8508 42.3129L57.4266 57.3306C57.5559 58.0848 56.7712 58.6543 56.0942 58.2987L42.6074 51.2083C41.805 50.7865 40.8459 50.7865 40.0435 51.2083L26.5568 58.2987C25.8794 58.6546 25.095 58.0846 25.2243 57.3306L27.8001 42.3129C27.9533 41.4192 27.657 40.5073 27.0078 39.8744L16.0968 29.2389C15.5487 28.7048 15.8485 27.7827 16.6058 27.6724L31.6843 25.4814C32.5815 25.351 33.3573 24.7876 33.7587 23.9745L40.5021 10.3108C40.8406 9.62508 41.8103 9.6246 42.149 10.311L48.8924 23.9745C49.2937 24.7876 50.0695 25.3511 50.9668 25.4814L66.0453 27.6724C66.8024 27.7827 67.102 28.7049 66.5541 29.2389Z" fill="#F59FAF"/>
<path d="M21.7495 5.67069L18.4546 1.13573C17.56 -0.09499 15.8372 -0.368124 14.6065 0.526503C13.3756 1.42081 13.1027 3.14372 13.9971 4.3746L17.292 8.9094C18.187 10.1408 19.9097 10.4128 21.1401 9.51862C22.371 8.62448 22.644 6.90157 21.7495 5.67069Z" fill="#F59FAF"/>
<path d="M10.8152 46.3108C10.3453 44.8639 8.79109 44.0713 7.34374 44.542L1.9043 46.3095C0.457268 46.7797 -0.33453 48.3338 0.135544 49.781C0.606427 51.2304 2.16323 52.0195 3.60703 51.5497L9.04647 49.7823C10.4937 49.312 11.2855 47.7578 10.8152 46.3108Z" fill="#F59FAF"/>
<path d="M68.0444 0.526654C66.8137 -0.367651 65.0908 -0.0950011 64.1963 1.13588L60.9014 5.67068C60.007 6.90156 60.2799 8.62463 61.5108 9.51877C62.7422 10.4134 64.4649 10.1399 65.3589 8.90955L68.6538 4.37475C69.5481 3.14387 69.2753 1.4208 68.0444 0.526654Z" fill="#F59FAF"/>
<path d="M80.7462 46.3094L75.3068 44.5419C73.8598 44.0709 72.3056 44.8636 71.8353 46.3107C71.3651 47.7577 72.1569 49.3121 73.6041 49.7822L79.0435 51.5496C80.4875 52.0192 82.0441 51.2302 82.515 49.7809C82.9852 48.3338 82.1933 46.7796 80.7462 46.3094Z" fill="#F59FAF"/>
<path d="M41.3252 67.667C39.8038 67.667 38.5703 68.9005 38.5703 70.4219V76.0134C38.5703 77.5349 39.8038 78.7683 41.3252 78.7683C42.8467 78.7683 44.0801 77.5349 44.0801 76.0134V70.4219C44.0803 68.9003 42.8468 67.667 41.3252 67.667Z" fill="#F59FAF"/>
</svg>
