<svg width="81" height="97" viewBox="0 0 81 97" fill="none" xmlns="http://www.w3.org/2000/svg">
<path d="M48.1864 90.9484H31.9733C31.2662 90.9487 30.5663 90.8058 29.9159 90.5284C29.2655 90.2509 28.6781 89.8446 28.189 89.3339C27.6998 88.8233 27.3192 88.2188 27.07 87.5571C26.8207 86.8954 26.7081 86.19 26.7388 85.4835V74.5795C26.7388 74.22 26.8816 73.8753 27.1358 73.6211C27.39 73.3669 27.7348 73.2241 28.0942 73.2241C28.4537 73.2241 28.7984 73.3669 29.0526 73.6211C29.3068 73.8753 29.4496 74.22 29.4496 74.5795V85.4835C29.4204 85.8333 29.4639 86.1854 29.5774 86.5175C29.6908 86.8497 29.8717 87.1548 30.1087 87.4137C30.3457 87.6727 30.6337 87.8797 30.9546 88.022C31.2755 88.1643 31.6223 88.2386 31.9733 88.2404H48.1864C48.9854 88.2622 49.7655 87.9956 50.384 87.4894C51.0025 86.9831 51.418 86.2711 51.5545 85.4835V74.5795C51.5545 74.22 51.6973 73.8753 51.9515 73.6211C52.2057 73.3669 52.5504 73.2241 52.9099 73.2241C53.2694 73.2241 53.6141 73.3669 53.8683 73.6211C54.1225 73.8753 54.2653 74.22 54.2653 74.5795V85.4835C54.1418 86.9985 53.4432 88.4088 52.3128 89.4251C51.1824 90.4413 49.7059 90.9864 48.1864 90.9484Z" fill="#F59FAF" stroke="#F59FAF"/>
<path d="M51.7601 75.935H29.2445C28.6084 75.9313 27.9937 75.7049 27.5071 75.2951C27.0206 74.8853 26.693 74.3181 26.5811 73.6919C25.445 68.3662 22.8661 63.4555 19.1265 59.497C15.5354 55.3907 13.203 50.337 12.4081 44.9401C11.6132 39.5433 12.3896 34.0317 14.6443 29.0645C16.8991 24.0972 20.5368 19.8844 25.1225 16.93C29.7082 13.9755 35.0479 12.4043 40.5029 12.4043C45.958 12.4043 51.2976 13.9755 55.8833 16.93C60.4691 19.8844 64.1068 24.0972 66.3615 29.0645C68.6163 34.0317 69.3927 39.5433 68.5978 44.9401C67.8029 50.337 65.4705 55.3907 61.8793 59.497C58.1385 63.4551 55.5582 68.3658 54.4207 73.6919C54.3089 74.3176 53.9817 74.8845 53.4957 75.2943C53.0097 75.704 52.3957 75.9307 51.7601 75.935ZM40.4846 15.1272C35.5531 15.1288 30.7263 16.5505 26.5813 19.2225C22.4363 21.8944 19.1485 25.7035 17.1108 30.1944C15.0732 34.6853 14.3719 39.668 15.0908 44.5468C15.8098 49.4257 17.9186 53.9943 21.165 57.7065C25.231 62.0306 28.0273 67.3911 29.2472 73.1999L51.7465 73.2243C52.9709 67.4075 55.7716 62.0396 59.8422 57.7079C62.9951 54.103 65.077 49.6883 65.8526 44.9624C66.6283 40.2365 66.0668 35.3879 64.2315 30.9644C62.3963 26.5408 59.3605 22.7188 55.4671 19.93C51.5737 17.1412 46.978 15.4969 42.1992 15.1828C41.6263 15.1466 41.0548 15.1281 40.4846 15.1272V15.1272Z" fill="#F59FAF" stroke="#F59FAF"/>
<path d="M40.5008 95.882C38.8662 95.8795 37.2994 95.2288 36.1438 94.0728C34.9882 92.9167 34.3383 91.3496 34.3365 89.715C34.3324 89.343 34.4704 88.9835 34.7222 88.7098C34.9741 88.436 35.3209 88.2686 35.6919 88.2417H45.3151C45.6746 88.2417 46.0193 88.3845 46.2735 88.6387C46.5277 88.8929 46.6705 89.2376 46.6705 89.5971C46.6818 90.4159 46.5307 91.2288 46.2261 91.9889C45.9215 92.749 45.4693 93.4412 44.8956 94.0255C44.322 94.6099 43.6383 95.0748 42.8839 95.3934C42.1296 95.7121 41.3196 95.8781 40.5008 95.882V95.882ZM37.2763 90.9525C37.5266 91.605 37.9689 92.1664 38.5448 92.5623C39.1207 92.9583 39.8032 93.1703 40.5021 93.1703C41.2011 93.1703 41.8835 92.9583 42.4595 92.5623C43.0354 92.1664 43.4777 91.605 43.7279 90.9525H37.2763Z" fill="#F59FAF" stroke="#F59FAF"/>
<path d="M26.2296 81.904C25.8818 81.9041 25.5474 81.7705 25.2954 81.5308C25.0434 81.2912 24.8931 80.9638 24.8757 80.6165C24.8583 80.2692 24.9751 79.9285 25.2018 79.6648C25.4286 79.4012 25.748 79.2348 26.094 79.2001L54.431 76.2968C54.611 76.2731 54.7939 76.2857 54.9689 76.3339C55.1439 76.3822 55.3074 76.4651 55.4498 76.5778C55.5921 76.6905 55.7104 76.8306 55.7975 76.9899C55.8847 77.1492 55.9389 77.3243 55.9571 77.5049C55.9753 77.6856 55.957 77.868 55.9033 78.0414C55.8496 78.2149 55.7616 78.3757 55.6445 78.5145C55.5275 78.6532 55.3837 78.7671 55.2218 78.8492C55.0599 78.9314 54.8832 78.9802 54.7021 78.9927L26.3651 81.8959C26.3201 81.9012 26.2749 81.9039 26.2296 81.904V81.904Z" fill="#F59FAF" stroke="#F59FAF"/>
<path d="M26.438 87.4734C26.0786 87.4913 25.7267 87.3658 25.4598 87.1243C25.1929 86.8828 25.0329 86.5452 25.0149 86.1858C24.9969 85.8263 25.1225 85.4744 25.3639 85.2075C25.6054 84.9406 25.943 84.7806 26.3025 84.7626L54.4307 81.8811C54.6107 81.8573 54.7936 81.8699 54.9686 81.9182C55.1436 81.9664 55.3072 82.0494 55.4495 82.1621C55.5918 82.2747 55.7101 82.4149 55.7972 82.5741C55.8844 82.7334 55.9387 82.9085 55.9568 83.0892C55.975 83.2698 55.9567 83.4522 55.903 83.6257C55.8493 83.7991 55.7613 83.9599 55.6442 84.0987C55.5272 84.2375 55.3834 84.3513 55.2215 84.4335C55.0596 84.5156 54.8829 84.5644 54.7018 84.5769L26.5763 87.4666C26.5304 87.4715 26.4842 87.4738 26.438 87.4734Z" fill="#F59FAF" stroke="#F59FAF"/>
<path d="M40.3954 9.26782C40.036 9.26782 39.6912 9.12503 39.437 8.87084C39.1828 8.61666 39.04 8.27191 39.04 7.91244V2.35538C39.04 1.99591 39.1828 1.65117 39.437 1.39698C39.6912 1.1428 40.036 1 40.3954 1C40.7549 1 41.0996 1.1428 41.3538 1.39698C41.608 1.65117 41.7508 1.99591 41.7508 2.35538V7.91244C41.7508 8.27191 41.608 8.61666 41.3538 8.87084C41.0996 9.12503 40.7549 9.26782 40.3954 9.26782Z" fill="#F59FAF" stroke="#F59FAF"/>
<path d="M24.1163 13.6878C23.878 13.6882 23.6437 13.6258 23.4371 13.5069C23.2306 13.3879 23.0591 13.2165 22.9399 13.0101L20.1654 8.20119C19.9885 7.89005 19.9419 7.52157 20.0356 7.17617C20.1294 6.83076 20.356 6.53646 20.666 6.3575C20.9759 6.17854 21.3441 6.12945 21.6901 6.22093C22.0361 6.31241 22.3319 6.53705 22.5129 6.84581L25.2888 11.6547C25.4077 11.8606 25.4703 12.0942 25.4703 12.332C25.4704 12.5698 25.4079 12.8035 25.2891 13.0095C25.1703 13.2155 24.9994 13.3866 24.7935 13.5057C24.5877 13.6247 24.3541 13.6875 24.1163 13.6878V13.6878Z" fill="#F59FAF" stroke="#F59FAF"/>
<path d="M12.2223 25.6557C11.9844 25.6562 11.7505 25.5935 11.5447 25.474L6.73848 22.6969C6.57871 22.6109 6.43783 22.4937 6.32419 22.3523C6.21055 22.2108 6.12647 22.048 6.07692 21.8735C6.02737 21.699 6.01336 21.5163 6.03573 21.3362C6.05811 21.1562 6.1164 20.9824 6.20716 20.8253C6.29791 20.6682 6.41929 20.531 6.56409 20.4216C6.70888 20.3123 6.87415 20.2332 7.0501 20.1889C7.22605 20.1446 7.4091 20.1362 7.58839 20.1639C7.76768 20.1917 7.93957 20.2552 8.09386 20.3507L12.9014 23.1265C13.1598 23.2757 13.3617 23.506 13.4759 23.7816C13.59 24.0573 13.6101 24.3629 13.5328 24.6511C13.4556 24.9393 13.2855 25.1939 13.0488 25.3756C12.8121 25.5572 12.5221 25.6556 12.2237 25.6557H12.2223Z" fill="#F59FAF" stroke="#F59FAF"/>
<path d="M7.91244 41.965H2.35538C1.99591 41.965 1.65116 41.8222 1.39698 41.5681C1.1428 41.3139 1 40.9691 1 40.6097C1 40.2502 1.1428 39.9054 1.39698 39.6513C1.65116 39.3971 1.99591 39.2543 2.35538 39.2543H7.91244C8.27191 39.2543 8.61666 39.3971 8.87084 39.6513C9.12502 39.9054 9.26782 40.2502 9.26782 40.6097C9.26782 40.9691 9.12502 41.3139 8.87084 41.5681C8.61666 41.8222 8.27191 41.965 7.91244 41.965Z" fill="#F59FAF" stroke="#F59FAF"/>
<path d="M7.52475 61.0216C7.2264 61.0216 6.93639 60.9231 6.69969 60.7415C6.46299 60.5599 6.29284 60.3052 6.21562 60.017C6.1384 59.7289 6.15842 59.4232 6.27259 59.1476C6.38676 58.8719 6.58869 58.6417 6.84706 58.4925L11.656 55.7167C11.8102 55.6277 11.9804 55.5699 12.157 55.5467C12.3335 55.5235 12.5129 55.5353 12.6849 55.5814C12.8569 55.6276 13.0181 55.7071 13.1593 55.8156C13.3006 55.924 13.4191 56.0592 13.5081 56.2134C13.5971 56.3676 13.6548 56.5379 13.678 56.7144C13.7012 56.891 13.6894 57.0704 13.6433 57.2423C13.5972 57.4143 13.5176 57.5755 13.4092 57.7168C13.3008 57.858 13.1656 57.9765 13.0113 58.0655L8.20244 60.8414C7.99627 60.9599 7.76255 61.022 7.52475 61.0216V61.0216Z" fill="#F59FAF" stroke="#F59FAF"/>
<path d="M56.8887 13.6878C56.6509 13.6875 56.4173 13.6247 56.2115 13.5057C56.0056 13.3866 55.8347 13.2155 55.7159 13.0095C55.5971 12.8035 55.5346 12.5698 55.5347 12.332C55.5347 12.0942 55.5974 11.8606 55.7163 11.6547L58.4867 6.84581C58.6677 6.53705 58.9635 6.31241 59.3095 6.22093C59.6555 6.12945 60.0237 6.17854 60.3336 6.3575C60.6436 6.53646 60.8702 6.83076 60.9639 7.17617C61.0577 7.52157 61.0111 7.89005 60.8342 8.20119L58.0584 13.0101C57.9397 13.2155 57.7693 13.3862 57.564 13.5052C57.3588 13.6241 57.1259 13.6871 56.8887 13.6878V13.6878Z" fill="#F59FAF" stroke="#F59FAF"/>
<path d="M68.7879 25.6557C68.4896 25.6556 68.1996 25.5572 67.9629 25.3756C67.7262 25.1939 67.556 24.9393 67.4788 24.6511C67.4016 24.3629 67.4216 24.0573 67.5358 23.7816C67.6499 23.506 67.8519 23.2757 68.1102 23.1265L72.9178 20.3507C73.0721 20.2552 73.244 20.1917 73.4233 20.1639C73.6025 20.1362 73.7856 20.1446 73.9615 20.1889C74.1375 20.2332 74.3028 20.3123 74.4476 20.4216C74.5924 20.531 74.7137 20.6682 74.8045 20.8253C74.8952 20.9824 74.9535 21.1562 74.9759 21.3362C74.9983 21.5163 74.9843 21.699 74.9347 21.8735C74.8852 22.048 74.8011 22.2108 74.6874 22.3523C74.5738 22.4937 74.4329 22.6109 74.2732 22.6969L69.4656 25.474C69.2598 25.5935 69.0259 25.6562 68.7879 25.6557V25.6557Z" fill="#F59FAF" stroke="#F59FAF"/>
<path d="M78.6449 41.965H73.0878C72.7283 41.965 72.3836 41.8222 72.1294 41.5681C71.8752 41.3139 71.7324 40.9691 71.7324 40.6097C71.7324 40.2502 71.8752 39.9054 72.1294 39.6513C72.3836 39.3971 72.7283 39.2543 73.0878 39.2543H78.6449C79.0043 39.2543 79.3491 39.3971 79.6033 39.6513C79.8575 39.9054 80.0002 40.2502 80.0002 40.6097C80.0002 40.9691 79.8575 41.3139 79.6033 41.5681C79.3491 41.8222 79.0043 41.965 78.6449 41.965Z" fill="#F59FAF" stroke="#F59FAF"/>
<path d="M73.48 61.0216C73.2422 61.0216 73.0086 60.9594 72.8023 60.8414L67.9961 58.0655C67.8419 57.9765 67.7067 57.858 67.5983 57.7168C67.4898 57.5755 67.4103 57.4143 67.3642 57.2423C67.318 57.0704 67.3062 56.891 67.3294 56.7144C67.3526 56.5379 67.4104 56.3676 67.4994 56.2134C67.5884 56.0592 67.7069 55.924 67.8481 55.8156C67.9894 55.7071 68.1506 55.6276 68.3226 55.5814C68.4945 55.5353 68.6739 55.5235 68.8505 55.5467C69.027 55.5699 69.1973 55.6277 69.3515 55.7167L74.1577 58.4925C74.4161 58.6417 74.618 58.8719 74.7322 59.1476C74.8463 59.4232 74.8663 59.7289 74.7891 60.017C74.7119 60.3052 74.5418 60.5599 74.3051 60.7415C74.0684 60.9231 73.7783 61.0216 73.48 61.0216V61.0216Z" fill="#F59FAF" stroke="#F59FAF"/>
<path d="M34.6603 75.935C34.3545 75.9347 34.0578 75.8311 33.8184 75.6409C33.5789 75.4507 33.4109 75.1851 33.3415 74.8873L26.7706 46.694C26.7151 46.4555 26.7253 46.2065 26.8 45.9733C26.8748 45.7401 27.0113 45.5316 27.1951 45.3698C27.3788 45.208 27.603 45.099 27.8437 45.0543C28.0845 45.0097 28.3328 45.0312 28.5624 45.1164L34.705 47.3975L39.7999 44.318C40.0114 44.1901 40.254 44.1224 40.5013 44.1224C40.7485 44.1224 40.9911 44.1901 41.2027 44.318L46.2989 47.3975L52.4361 45.1164C52.6656 45.0312 52.914 45.0097 53.1547 45.0543C53.3955 45.099 53.6196 45.208 53.8034 45.3698C53.9872 45.5316 54.1237 45.7401 54.1984 45.9733C54.2732 46.2065 54.2833 46.4555 54.2279 46.694L47.6624 74.8859C47.5808 75.2361 47.3635 75.5394 47.0582 75.7293C46.7529 75.9192 46.3847 75.98 46.0346 75.8984C45.6845 75.8168 45.3811 75.5995 45.1912 75.2942C45.0014 74.9889 44.9405 74.6207 45.0221 74.2706L51.0156 48.5333L46.6296 50.1597C46.4381 50.2301 46.2332 50.2567 46.0301 50.2374C45.827 50.2182 45.6308 50.1537 45.4559 50.0486L40.5006 47.0627L35.548 50.0554C35.3734 50.1611 35.1771 50.226 34.9739 50.2453C34.7706 50.2645 34.5656 50.2376 34.3743 50.1665L29.9869 48.5401L35.9872 74.272C36.0684 74.6221 36.0072 74.9901 35.817 75.2951C35.6269 75.6001 35.3234 75.8171 34.9733 75.8984C34.8707 75.9223 34.7657 75.9346 34.6603 75.935V75.935Z" fill="#F59FAF" stroke="#F59FAF"/>
</svg>
